<?xml version="1.0" encoding="UTF-8" standalone="no"?>
<svg
   xmlns:dc="http://purl.org/dc/elements/1.1/"
   xmlns:cc="http://creativecommons.org/ns#"
   xmlns:rdf="http://www.w3.org/1999/02/22-rdf-syntax-ns#"
   xmlns:svg="http://www.w3.org/2000/svg"
   xmlns="http://www.w3.org/2000/svg"
   xmlns:sodipodi="http://sodipodi.sourceforge.net/DTD/sodipodi-0.dtd"
   xmlns:inkscape="http://www.inkscape.org/namespaces/inkscape"
   width="64"
   height="64"
   version="1.1"
   id="svg999"
   sodipodi:docname="cactus.svg"
   inkscape:version="0.92.2 (5c3e80d, 2017-08-06)">
  <metadata
     id="metadata1005">
    <rdf:RDF>
      <cc:Work
         rdf:about="">
        <dc:format>image/svg+xml</dc:format>
        <dc:type
           rdf:resource="http://purl.org/dc/dcmitype/StillImage" />
      </cc:Work>
    </rdf:RDF>
  </metadata>
  <defs
     id="defs1003" />
  <sodipodi:namedview
     pagecolor="#ffffff"
     bordercolor="#666666"
     borderopacity="1"
     objecttolerance="10"
     gridtolerance="10"
     guidetolerance="10"
     inkscape:pageopacity="0"
     inkscape:pageshadow="2"
     inkscape:window-width="1280"
     inkscape:window-height="753"
     id="namedview1001"
     showgrid="false"
     inkscape:zoom="3.6875"
     inkscape:cx="-4.6101695"
     inkscape:cy="32"
     inkscape:window-x="0"
     inkscape:window-y="0"
     inkscape:window-maximized="1"
     inkscape:current-layer="svg999" />
  <path
     d="M36.25 57.875l1.125-12.25s7.756.693 10-1.375c2.826-2.605 2.685-7.618 1.875-11.375-.538-2.497-2.341-8.066-4.25-6.375-2.403 2.13-1.269 9.441-3.5 11.75-1.19 1.232-3.5.625-3.5.625S40.822 24.019 36.625 19c-1.951-2.333-6.614-5.167-9.25-2.5-2.46 2.49-2.25 14-2.25 14s-3.43.514-5.375-1.25c-2.543-2.307-.516-7.77-3.125-10-1.618-1.383-3.873.181-4.375 2.25-1.478 6.087-.858 8.825 1.875 14.375 1.909 3.876 7.218-1.25 9.875 2.375 4.51 6.155.625 19.875.625 19.875z"
     fill="#71c837"
     stroke="#000"
     id="path981" />
  <path
     d="M16 23.75c-2.253 11.398 4.71 6.677 8.875 11.125"
     fill="none"
     stroke="#b3ff80"
     stroke-width=".378"
     stroke-linecap="round"
     id="path983" />
  <ellipse
     cx="31.188"
     cy="59.375"
     rx="10.563"
     ry="2.375"
     fill="#784421"
     id="ellipse985"
     style="fill:#241f1c" />
  <path
     d="M25.9 15.171l2.45 2.783"
     fill="none"
     stroke="#000"
     stroke-width=".739"
     id="path987" />
  <path
     d="M35.875 26L40 24.375M34.125 19.5l2.5-2m-11.5 16.375l-2.375-2.5m24.625-.875l3.25-2.75M46.5 36.125l1.125 3.25M40.375 44l.875 3.75m3.5-4.375l2.375 2.875M40.5 37.5l2.625 2.375m1.125-7l-2.5-2.125M32.5 49.625l2.25.25m-5-7l-2.25 1.5m-1.375-4.75l-3.25.375M17.5 35.25l1.875 2.875m-5-5h-3.5M12.5 29.5l-2.25-2.625m3.75-5.5l-1-3m1.75 7.5L16.5 27.5m0-4.125l2.75-1.25m13.375 10.25l3.25-1.25M31.25 38.75l2.625 2m-6.75-11.375L23.5 27.5"
     fill="none"
     stroke="#000"
     id="path989" />
  <path
     d="M31.75 16.75v-2.375"
     fill="none"
     stroke="#000"
     stroke-width="1.057"
     id="path991" />
  <path
     d="M27.375 23.125L24 21.875"
     fill="none"
     stroke="#000"
     id="path993" />
  <path
     d="M14.5 22c-2.253 11.398 1.71 12.802 6.875 13.375M45.25 28.75c.125 4.86 1.002 3.945-.872 9.5-1.985 5.885-6.128 3.5-6.128 3.5m-9.625-19c.382 5.495-.787 7.2-.078 13.217-.2 10.662-.922 19.408-.922 19.408m3.5-35.5s.369 10.951-.192 16.375c-.638 6.172-.433 19.125-.433 19.125m4.25-31.25s.09 7.808-.686 13.13c-1.287 8.836-.611 18.011-.564 17.87"
     fill="none"
     stroke="#b3ff80"
     stroke-width=".378"
     stroke-linecap="round"
     id="path995" />
  <path
     d="M46.875 28.625s.961 3.676 0 8.632c-.398 2.052-3.375 5.993-3.375 5.993"
     fill="none"
     stroke="#b3ff80"
     stroke-width=".378"
     stroke-linecap="round"
     id="path997" />
</svg>
