<?xml version="1.0" encoding="UTF-8" standalone="no"?>
<!-- Created with Inkscape (http://www.inkscape.org/) -->

<svg
   xmlns:dc="http://purl.org/dc/elements/1.1/"
   xmlns:cc="http://creativecommons.org/ns#"
   xmlns:rdf="http://www.w3.org/1999/02/22-rdf-syntax-ns#"
   xmlns:svg="http://www.w3.org/2000/svg"
   xmlns="http://www.w3.org/2000/svg"
   xmlns:sodipodi="http://sodipodi.sourceforge.net/DTD/sodipodi-0.dtd"
   xmlns:inkscape="http://www.inkscape.org/namespaces/inkscape"
   width="64px"
   height="64px"
   viewBox="0 0 64 64"
   version="1.1"
   id="SVGRoot"
   sodipodi:docname="drawing.svg"
   inkscape:version="0.92.2 (5c3e80d, 2017-08-06)">
  <sodipodi:namedview
     id="base"
     pagecolor="#ffffff"
     bordercolor="#666666"
     borderopacity="1.0"
     inkscape:pageopacity="0.0"
     inkscape:pageshadow="2"
     inkscape:zoom="8"
     inkscape:cx="32"
     inkscape:cy="32"
     inkscape:document-units="px"
     inkscape:current-layer="layer1"
     showgrid="false"
     inkscape:window-width="1280"
     inkscape:window-height="753"
     inkscape:window-x="0"
     inkscape:window-y="0"
     inkscape:window-maximized="1" />
  <defs
     id="defs815" />
  <metadata
     id="metadata818">
    <rdf:RDF>
      <cc:Work
         rdf:about="">
        <dc:format>image/svg+xml</dc:format>
        <dc:type
           rdf:resource="http://purl.org/dc/dcmitype/StillImage" />
      </cc:Work>
    </rdf:RDF>
  </metadata>
  <g
     id="layer1"
     inkscape:groupmode="layer"
     inkscape:label="Layer 1">
    <g
       id="g5271"
       transform="rotate(90,32.332127,31.952353)">
      <path
         inkscape:connector-curvature="0"
         id="path1380"
         d="m 37.698138,39.102654 c -0.668346,-4.071593 2.592953,-8.381712 6.915855,-7.884905 5.230336,0.236581 11.018162,3.785639 11.224583,9.522138 0.582888,7.633257 -3.214189,15.269869 -9.254149,19.835318 -3.550711,2.630196 -9.031553,-1.538412 -6.383117,-5.583411 1.779508,-3.173146 4.855884,-5.953237 4.832908,-9.855613 -1.001808,-3.812305 -7.375612,-1.359831 -7.33608,-6.033527 z"
         style="fill:#000000;fill-opacity:1;stroke:none;stroke-width:2.31499743;stroke-linecap:butt;stroke-linejoin:miter;stroke-miterlimit:4;stroke-dasharray:none" />
      <path
         inkscape:connector-curvature="0"
         id="path1382"
         d="m 38.963308,30.036171 c 0.754586,2.882324 -2.703561,5.195734 -5.256054,2.946388 -3.032772,-2.206063 -1.942166,-7.52559 1.849506,-6.721882 1.77447,0.372995 3.160735,2.103695 3.406548,3.775494 z"
         style="fill:#000000;fill-opacity:1;stroke:none;stroke-width:3.06599808;stroke-linecap:butt;stroke-linejoin:miter;stroke-miterlimit:4;stroke-dasharray:none" />
      <path
         inkscape:connector-curvature="0"
         id="path1384"
         d="m 44.552616,28.129485 c 0.509069,2.03865 -2.09656,3.795624 -3.670826,1.897716 -1.823748,-1.695507 -0.6166,-5.5429 2.013571,-4.406535 0.96333,0.468608 1.552382,1.521627 1.657255,2.508819 z"
         style="fill:#000000;fill-opacity:1;stroke:none;stroke-width:2.31499743;stroke-linecap:butt;stroke-linejoin:miter;stroke-miterlimit:4;stroke-dasharray:none" />
      <path
         inkscape:connector-curvature="0"
         id="ellipse1388"
         d="m 49.900614,27.973837 c 0.278201,2.048248 -2.519371,3.792165 -3.880741,1.897715 -1.640513,-1.702454 0.0086,-5.547481 2.500998,-4.406535 0.908791,0.466577 1.384352,1.519332 1.379743,2.50882 z"
         style="fill:#000000;fill-opacity:1;stroke:none;stroke-width:2.31499743;stroke-linecap:butt;stroke-linejoin:miter;stroke-miterlimit:4;stroke-dasharray:none" />
      <path
         inkscape:connector-curvature="0"
         id="ellipse1390"
         d="m 55.173285,29.763786 c -0.09651,2.019275 -3.246419,3.802547 -4.248091,1.897716 -1.301848,-1.681592 1.043186,-5.533537 3.353995,-4.406536 0.82544,0.472732 1.088036,1.5262 0.894096,2.50882 z"
         style="fill:#000000;fill-opacity:1;stroke:none;stroke-width:2.31499743;stroke-linecap:butt;stroke-linejoin:miter;stroke-miterlimit:4;stroke-dasharray:none" />
      <path
         inkscape:connector-curvature="0"
         id="ellipse1392"
         d="m 59.542083,33.732805 c -0.236702,2.108204 -3.687392,3.278561 -4.238028,1.261453 -0.909738,-1.801944 2.114191,-4.699287 3.738605,-3.188378 0.503941,0.448527 0.667978,1.193154 0.499423,1.926925 z"
         style="fill:#000000;fill-opacity:1;stroke:none;stroke-width:2.08900213;stroke-linecap:butt;stroke-linejoin:miter;stroke-miterlimit:4;stroke-dasharray:none" />
      <path
         inkscape:connector-curvature="0"
         id="path1394"
         d="M 26.966113,16.352654 C 27.634459,12.281061 24.37316,7.9709425 20.050258,8.4677492 14.819922,8.70433 9.0320964,12.253388 8.8256748,17.989887 c -0.5828874,7.633257 3.2141882,15.269869 9.2541492,19.835318 3.550711,2.630196 9.031553,-1.538412 6.383117,-5.583411 -1.779508,-3.173146 -4.855884,-5.953237 -4.832908,-9.855613 1.001808,-3.812305 7.375612,-1.359831 7.33608,-6.033527 z"
         style="fill:#000000;fill-opacity:1;stroke:none;stroke-width:2.31499743;stroke-linecap:butt;stroke-linejoin:miter;stroke-miterlimit:4;stroke-dasharray:none" />
      <path
         inkscape:connector-curvature="0"
         id="ellipse1396"
         d="m 25.700943,7.2861712 c -0.754587,2.8823238 2.703561,5.1957338 5.256053,2.9463888 3.032773,-2.2060632 1.942167,-7.5255906 -1.849505,-6.7218826 -1.77447,0.3729939 -3.160735,2.1036944 -3.406548,3.7754938 z"
         style="fill:#000000;fill-opacity:1;stroke:none;stroke-width:3.06599808;stroke-linecap:butt;stroke-linejoin:miter;stroke-miterlimit:4;stroke-dasharray:none" />
      <path
         inkscape:connector-curvature="0"
         id="ellipse1398"
         d="m 20.111635,5.3794845 c -0.509069,2.0386499 2.09656,3.7956235 3.670825,1.897715 1.823749,-1.695506 0.616601,-5.5428993 -2.013571,-4.4065346 -0.963486,0.4689636 -1.552175,1.5210683 -1.657254,2.5088196 z"
         style="fill:#000000;fill-opacity:1;stroke:none;stroke-width:2.31499743;stroke-linecap:butt;stroke-linejoin:miter;stroke-miterlimit:4;stroke-dasharray:none" />
      <path
         inkscape:connector-curvature="0"
         id="ellipse1400"
         d="m 14.763636,5.2238369 c -0.278201,2.0482482 2.519371,3.792165 3.88074,1.8977151 1.640514,-1.7024539 -0.0086,-5.5474807 -2.500998,-4.4065346 -0.908883,0.4668889 -1.384229,1.5188265 -1.379742,2.5088195 z"
         style="fill:#000000;fill-opacity:1;stroke:none;stroke-width:2.31499743;stroke-linecap:butt;stroke-linejoin:miter;stroke-miterlimit:4;stroke-dasharray:none" />
      <path
         inkscape:connector-curvature="0"
         id="ellipse1402"
         d="M 9.4909642,7.0137856 C 9.5874761,9.0330604 12.737384,10.816332 13.739056,8.9115007 15.040903,7.2299089 12.69587,3.3779648 10.385061,4.5049659 9.5595359,4.9781411 9.2970834,6.0304962 9.4909642,7.0137856 Z"
         style="fill:#000000;fill-opacity:1;stroke:none;stroke-width:2.31499743;stroke-linecap:butt;stroke-linejoin:miter;stroke-miterlimit:4;stroke-dasharray:none" />
      <path
         inkscape:connector-curvature="0"
         id="ellipse1404"
         d="M 5.1221705,10.982805 C 5.3588728,13.09101 8.8095628,14.261368 9.3601992,12.244258 10.269936,10.442315 7.2460081,7.5449713 5.6215939,9.0558805 5.117653,9.5044076 4.9536162,10.249035 5.1221705,10.982805 Z"
         style="fill:#000000;fill-opacity:1;stroke:none;stroke-width:2.08900213;stroke-linecap:butt;stroke-linejoin:miter;stroke-miterlimit:4;stroke-dasharray:none" />
    </g>
  </g>
</svg>
