<?xml version="1.0" encoding="UTF-8" standalone="no"?>
<!-- Created with Inkscape (http://www.inkscape.org/) -->

<svg
   xmlns:dc="http://purl.org/dc/elements/1.1/"
   xmlns:cc="http://creativecommons.org/ns#"
   xmlns:rdf="http://www.w3.org/1999/02/22-rdf-syntax-ns#"
   xmlns:svg="http://www.w3.org/2000/svg"
   xmlns="http://www.w3.org/2000/svg"
   xmlns:sodipodi="http://sodipodi.sourceforge.net/DTD/sodipodi-0.dtd"
   xmlns:inkscape="http://www.inkscape.org/namespaces/inkscape"
   width="64px"
   height="64px"
   viewBox="0 0 64 64"
   version="1.1"
   id="SVGRoot"
   sodipodi:docname="gun.svg"
   inkscape:version="0.92.2 (5c3e80d, 2017-08-06)">
  <sodipodi:namedview
     id="base"
     pagecolor="#ffffff"
     bordercolor="#666666"
     borderopacity="1.0"
     inkscape:pageopacity="0.0"
     inkscape:pageshadow="2"
     inkscape:zoom="11.313708"
     inkscape:cx="29.678125"
     inkscape:cy="34.838605"
     inkscape:document-units="px"
     inkscape:current-layer="layer1"
     showgrid="false"
     inkscape:window-width="1280"
     inkscape:window-height="753"
     inkscape:window-x="0"
     inkscape:window-y="0"
     inkscape:window-maximized="1"
     inkscape:snap-global="false" />
  <defs
     id="defs6869" />
  <metadata
     id="metadata6872">
    <rdf:RDF>
      <cc:Work
         rdf:about="">
        <dc:format>image/svg+xml</dc:format>
        <dc:type
           rdf:resource="http://purl.org/dc/dcmitype/StillImage" />
      </cc:Work>
    </rdf:RDF>
  </metadata>
  <g
     id="layer1"
     inkscape:groupmode="layer"
     inkscape:label="Layer 1">
    <path
       style="fill:none;stroke:#000000;stroke-width:1.5811435;stroke-linecap:round;stroke-linejoin:miter;stroke-miterlimit:4;stroke-dasharray:none;stroke-opacity:1"
       d="m 9.4444831,20.548571 c 0,0 9.2119259,-2.124627 9.5358659,4.613401 0.447483,9.307753 4.811877,8.801462 4.811877,8.801462"
       id="path7436"
       inkscape:connector-curvature="0"
       sodipodi:nodetypes="csc" />
    <path
       style="fill:#cccccc;stroke:#000000;stroke-width:1.72791755;stroke-linecap:butt;stroke-linejoin:miter;stroke-miterlimit:4;stroke-dasharray:none;stroke-opacity:1"
       d="m 16.156103,17.704142 h 15.298545 l 0.0625,11.142636 c 0,0 -3.106118,1.458275 -2.135206,2.446299 0,0 -1.035341,-1.993355 -1.974006,-2.008799 -4.583811,-0.07542 -11.251833,0 -11.251833,0 l -5.033715,2.481457 c 0,0 -2.2167676,-3.741081 -1.046406,-4.169939 7.209045,-2.641625 6.080121,-9.891654 6.080121,-9.891654 z"
       id="path7440"
       inkscape:connector-curvature="0"
       sodipodi:nodetypes="cccssccsc" />
    <ellipse
       style="opacity:0.93000034;fill:none;fill-opacity:1;stroke:#000000;stroke-width:1.37042701;stroke-linecap:round;stroke-miterlimit:4;stroke-dasharray:none;stroke-opacity:1;paint-order:normal"
       id="path7434"
       cx="23.973227"
       cy="33.236847"
       rx="6.0272465"
       ry="3.8158422" />
    <path
       style="fill:#ffcc00;fill-opacity:1;stroke:#000000;stroke-width:1.46899498;stroke-linecap:butt;stroke-linejoin:miter;stroke-miterlimit:4;stroke-dasharray:none;stroke-opacity:1"
       d="m 10.051127,27.572286 c 0,0 7.653462,-0.455108 8.114183,2.211225 0.200298,1.159182 0.115637,0.03598 0.0026,1.285385 -0.09712,1.073325 -0.481782,1.361358 -3.278803,3.729534 -2.960613,2.506685 -2.290911,8.649788 -2.290911,8.649788 0,0 1.542243,2.030869 0.955899,2.552193 -0.480055,0.426825 -3.128536,-0.260319 -3.128536,-0.260319 L 4.5380548,45.163583 c 0,0 -0.8480456,0.195371 -1.0816684,-0.105917 -0.4129375,-0.532537 -0.033171,-0.900127 -0.031924,-2.319593 0.00332,-3.795817 0.3777904,-6.43037 2.165751,-10.372091 0.9425435,-2.077924 4.4609286,-4.793696 4.4609286,-4.793696 z"
       id="path7442"
       inkscape:connector-curvature="0"
       sodipodi:nodetypes="cssscsccssscc" />
    <rect
       style="opacity:0.93000034;fill:#808080;fill-opacity:1;stroke:#000000;stroke-width:1.5811435;stroke-linecap:round;stroke-miterlimit:4;stroke-dasharray:none;stroke-opacity:1;paint-order:normal"
       id="rect7446"
       width="9.6726284"
       height="6.5302238"
       x="18.919712"
       y="19.892601" />
    <path
       style="fill:none;stroke:#000000;stroke-width:1.58099997;stroke-linecap:round;stroke-linejoin:miter;stroke-miterlimit:4;stroke-dasharray:none;stroke-opacity:1"
       d="m 23.303772,22.980936 h 4.540214 v 0.09894"
       id="path7448"
       inkscape:connector-curvature="0" />
    <rect
       style="opacity:0.93000034;fill:#808080;fill-opacity:1;stroke:#000000;stroke-width:1.49661314;stroke-linecap:round;stroke-miterlimit:4;stroke-dasharray:none;stroke-opacity:1;paint-order:normal"
       id="rect7450"
       width="30.188015"
       height="4.4498339"
       x="31.313734"
       y="18.453367" />
    <path
       style="fill:none;stroke:#000000;stroke-width:1.5811435;stroke-linecap:round;stroke-linejoin:miter;stroke-miterlimit:4;stroke-dasharray:none;stroke-opacity:1"
       d="M 31.464961,25.214403 H 57.028336"
       id="path7452"
       inkscape:connector-curvature="0" />
    <path
       style="fill:none;stroke:#000000;stroke-width:1.17267156;stroke-linecap:round;stroke-linejoin:miter;stroke-miterlimit:4;stroke-dasharray:none;stroke-opacity:1"
       d="M 59.386831,18.176021 V 16.760984"
       id="path7456"
       inkscape:connector-curvature="0" />
    <ellipse
       style="fill:#000000;stroke:none"
       id="path881"
       cx="10.562407"
       cy="30.147263"
       rx="0.66291261"
       ry="0.61871845" />
    <ellipse
       ry="0.61871845"
       rx="0.66291261"
       cy="43.317123"
       cx="9.8552999"
       id="ellipse883"
       style="fill:#000000;stroke:none" />
  </g>
</svg>
